<?xml version="1.0" encoding="UTF-8" standalone="no"?>
<!DOCTYPE svg PUBLIC "-//W3C//DTD SVG 1.1//EN"
 "http://www.w3.org/Graphics/SVG/1.1/DTD/svg11.dtd">
<!-- Generated by graphviz version 2.49.0 (20210828.1703)
 -->
<!-- Pages: 1 -->
<svg width="443pt" height="764pt"
 viewBox="0.00 0.00 443.00 764.00" xmlns="http://www.w3.org/2000/svg" xmlns:xlink="http://www.w3.org/1999/xlink">
<g id="graph0" class="graph" transform="scale(1 1) rotate(0) translate(4 760)">
<polygon fill="white" stroke="transparent" points="-4,4 -4,-760 439,-760 439,4 -4,4"/>
<!-- start -->
<g id="node1" class="node">
<title>start</title>
<ellipse fill="none" stroke="black" cx="67" cy="-738" rx="27" ry="18"/>
<text text-anchor="middle" x="67" y="-734.3" font-family="Times,serif" font-size="14.00">start</text>
</g>
<!-- ol -->
<g id="node5" class="node">
<title>ol</title>
<ellipse fill="none" stroke="black" cx="122" cy="-450" rx="27" ry="18"/>
<text text-anchor="middle" x="122" y="-446.3" font-family="Times,serif" font-size="14.00">ol</text>
</g>
<!-- start&#45;&#45;ol -->
<g id="edge14" class="edge">
<title>start&#45;&#45;ol</title>
<path fill="none" stroke="black" d="M71.91,-719.9C74.78,-709.56 78.35,-696.08 81,-684 98.62,-603.77 113.73,-506.69 119.5,-468.05"/>
</g>
<!-- JS -->
<g id="node6" class="node">
<title>JS</title>
<ellipse fill="none" stroke="black" cx="95" cy="-378" rx="27" ry="18"/>
<text text-anchor="middle" x="95" y="-374.3" font-family="Times,serif" font-size="14.00">JS</text>
</g>
<!-- start&#45;&#45;JS -->
<g id="edge16" class="edge">
<title>start&#45;&#45;JS</title>
<path fill="none" stroke="black" d="M67,-719.95C67,-693.29 67,-640.11 67,-595 67,-595 67,-595 67,-521 67,-475.02 81.31,-422.21 89.47,-395.84"/>
</g>
<!-- end -->
<g id="node2" class="node">
<title>end</title>
<ellipse fill="none" stroke="black" cx="338" cy="-18" rx="27" ry="18"/>
<text text-anchor="middle" x="338" y="-14.3" font-family="Times,serif" font-size="14.00">end</text>
</g>
<!-- im -->
<g id="node7" class="node">
<title>im</title>
<ellipse fill="none" stroke="black" cx="271" cy="-306" rx="27" ry="18"/>
<text text-anchor="middle" x="271" y="-302.3" font-family="Times,serif" font-size="14.00">im</text>
</g>
<!-- end&#45;&#45;im -->
<g id="edge8" class="edge">
<title>end&#45;&#45;im</title>
<path fill="none" stroke="black" d="M340.2,-35.98C344.61,-75.69 351.5,-176.95 319,-252 312.19,-267.72 298.78,-281.89 287.85,-291.62"/>
</g>
<!-- QI -->
<g id="node9" class="node">
<title>QI</title>
<ellipse fill="none" stroke="black" cx="283" cy="-234" rx="27" ry="18"/>
<text text-anchor="middle" x="283" y="-230.3" font-family="Times,serif" font-size="14.00">QI</text>
</g>
<!-- end&#45;&#45;QI -->
<g id="edge18" class="edge">
<title>end&#45;&#45;QI</title>
<path fill="none" stroke="black" d="M333.42,-36.18C330.67,-46.54 327.11,-60.02 324,-72 310.38,-124.49 294.66,-186.71 287.26,-216.07"/>
</g>
<!-- AF -->
<g id="node12" class="node">
<title>AF</title>
<ellipse fill="none" stroke="black" cx="298" cy="-522" rx="27" ry="18"/>
<text text-anchor="middle" x="298" y="-518.3" font-family="Times,serif" font-size="14.00">AF</text>
</g>
<!-- end&#45;&#45;AF -->
<g id="edge21" class="edge">
<title>end&#45;&#45;AF</title>
<path fill="none" stroke="black" d="M345.51,-35.66C356.58,-61.8 376,-114.3 376,-161 376,-235 376,-235 376,-235 376,-341.02 325.49,-461.61 305.76,-504.66"/>
</g>
<!-- bm -->
<g id="node3" class="node">
<title>bm</title>
<ellipse fill="none" stroke="black" cx="298" cy="-594" rx="27" ry="18"/>
<text text-anchor="middle" x="298" y="-590.3" font-family="Times,serif" font-size="14.00">bm</text>
</g>
<!-- XY -->
<g id="node4" class="node">
<title>XY</title>
<ellipse fill="none" stroke="black" cx="408" cy="-522" rx="27" ry="18"/>
<text text-anchor="middle" x="408" y="-518.3" font-family="Times,serif" font-size="14.00">XY</text>
</g>
<!-- bm&#45;&#45;XY -->
<g id="edge1" class="edge">
<title>bm&#45;&#45;XY</title>
<path fill="none" stroke="black" d="M317.16,-580.81C337.35,-567.96 368.95,-547.85 389.06,-535.05"/>
</g>
<!-- bm&#45;&#45;im -->
<g id="edge3" class="edge">
<title>bm&#45;&#45;im</title>
<path fill="none" stroke="black" d="M284.25,-578.07C276.04,-568.1 266.38,-554.25 262,-540 238.08,-462.23 257.27,-362.94 266.62,-323.87"/>
</g>
<!-- bm&#45;&#45;QI -->
<g id="edge5" class="edge">
<title>bm&#45;&#45;QI</title>
<path fill="none" stroke="black" d="M311.75,-578.07C319.96,-568.1 329.62,-554.25 334,-540 338.7,-524.71 334.99,-519.97 334,-504 327.99,-407.44 333.25,-381.12 307,-288 303.38,-275.17 297.11,-261.48 291.89,-251.23"/>
</g>
<!-- gq -->
<g id="node11" class="node">
<title>gq</title>
<ellipse fill="none" stroke="black" cx="171" cy="-162" rx="27" ry="18"/>
<text text-anchor="middle" x="171" y="-158.3" font-family="Times,serif" font-size="14.00">gq</text>
</g>
<!-- bm&#45;&#45;gq -->
<g id="edge23" class="edge">
<title>bm&#45;&#45;gq</title>
<path fill="none" stroke="black" d="M281.37,-579.62C254.62,-556.48 205,-506.11 205,-451 205,-451 205,-451 205,-377 205,-302.7 184.76,-215.67 175.51,-179.78"/>
</g>
<!-- bm&#45;&#45;AF -->
<g id="edge11" class="edge">
<title>bm&#45;&#45;AF</title>
<path fill="none" stroke="black" d="M298,-575.7C298,-564.85 298,-550.92 298,-540.1"/>
</g>
<!-- ol&#45;&#45;JS -->
<g id="edge2" class="edge">
<title>ol&#45;&#45;JS</title>
<path fill="none" stroke="black" d="M115.6,-432.41C111.36,-421.41 105.81,-407.03 101.54,-395.96"/>
</g>
<!-- ja -->
<g id="node10" class="node">
<title>ja</title>
<ellipse fill="none" stroke="black" cx="150" cy="-306" rx="27" ry="18"/>
<text text-anchor="middle" x="150" y="-302.3" font-family="Times,serif" font-size="14.00">ja</text>
</g>
<!-- JS&#45;&#45;ja -->
<g id="edge6" class="edge">
<title>JS&#45;&#45;ja</title>
<path fill="none" stroke="black" d="M106.93,-361.81C116.16,-350.07 128.87,-333.89 138.09,-322.16"/>
</g>
<!-- JS&#45;&#45;gq -->
<g id="edge10" class="edge">
<title>JS&#45;&#45;gq</title>
<path fill="none" stroke="black" d="M97.5,-359.98C100.43,-341.85 105.92,-312.45 114,-288 127.39,-247.46 149.92,-202.5 162.27,-179.12"/>
</g>
<!-- im&#45;&#45;QI -->
<g id="edge22" class="edge">
<title>im&#45;&#45;QI</title>
<path fill="none" stroke="black" d="M273.9,-288.05C275.76,-277.21 278.17,-263.18 280.04,-252.28"/>
</g>
<!-- im&#45;&#45;gq -->
<g id="edge7" class="edge">
<title>im&#45;&#45;gq</title>
<path fill="none" stroke="black" d="M259.92,-289.26C240.69,-261.97 201.39,-206.15 182.13,-178.81"/>
</g>
<!-- RD -->
<g id="node8" class="node">
<title>RD</title>
<ellipse fill="none" stroke="black" cx="57" cy="-90" rx="27" ry="18"/>
<text text-anchor="middle" x="57" y="-86.3" font-family="Times,serif" font-size="14.00">RD</text>
</g>
<!-- RD&#45;&#45;start -->
<g id="edge12" class="edge">
<title>RD&#45;&#45;start</title>
<path fill="none" stroke="black" d="M46.01,-106.78C29.45,-132.15 0,-184.12 0,-233 0,-595 0,-595 0,-595 0,-645.43 34.99,-697.13 54.4,-721.93"/>
</g>
<!-- RD&#45;&#45;ol -->
<g id="edge4" class="edge">
<title>RD&#45;&#45;ol</title>
<path fill="none" stroke="black" d="M53.25,-107.95C47.71,-134.48 38,-187.48 38,-233 38,-307 38,-307 38,-307 38,-347.64 37.7,-361.38 59,-396 69.71,-413.41 88.11,-427.91 102.27,-437.31"/>
</g>
<!-- RD&#45;&#45;ja -->
<g id="edge13" class="edge">
<title>RD&#45;&#45;ja</title>
<path fill="none" stroke="black" d="M64.17,-107.49C81.5,-147.38 125.55,-248.73 142.86,-288.56"/>
</g>
<!-- QI&#45;&#45;gq -->
<g id="edge19" class="edge">
<title>QI&#45;&#45;gq</title>
<path fill="none" stroke="black" d="M264,-221.13C243.41,-208.25 210.72,-187.83 190.09,-174.93"/>
</g>
<!-- ja&#45;&#45;ol -->
<g id="edge9" class="edge">
<title>ja&#45;&#45;ol</title>
<path fill="none" stroke="black" d="M146.61,-324.19C141.22,-351.52 130.76,-404.58 125.38,-431.87"/>
</g>
<!-- ja&#45;&#45;QI -->
<g id="edge24" class="edge">
<title>ja&#45;&#45;QI</title>
<path fill="none" stroke="black" d="M170.49,-294.22C195.41,-281.1 237.24,-259.09 262.27,-245.91"/>
</g>
<!-- ja&#45;&#45;gq -->
<g id="edge20" class="edge">
<title>ja&#45;&#45;gq</title>
<path fill="none" stroke="black" d="M152.53,-287.87C156.57,-260.58 164.42,-207.52 168.46,-180.19"/>
</g>
<!-- gq&#45;&#45;RD -->
<g id="edge25" class="edge">
<title>gq&#45;&#45;RD</title>
<path fill="none" stroke="black" d="M151.66,-149.13C130.7,-136.25 97.43,-115.83 76.43,-102.93"/>
</g>
<!-- AF&#45;&#45;ol -->
<g id="edge17" class="edge">
<title>AF&#45;&#45;ol</title>
<path fill="none" stroke="black" d="M275.35,-511.99C241.56,-498.55 178.31,-473.39 144.56,-459.97"/>
</g>
<!-- cj -->
<g id="node13" class="node">
<title>cj</title>
<ellipse fill="none" stroke="black" cx="298" cy="-666" rx="27" ry="18"/>
<text text-anchor="middle" x="298" y="-662.3" font-family="Times,serif" font-size="14.00">cj</text>
</g>
<!-- cj&#45;&#45;bm -->
<g id="edge15" class="edge">
<title>cj&#45;&#45;bm</title>
<path fill="none" stroke="black" d="M298,-647.7C298,-636.85 298,-622.92 298,-612.1"/>
</g>
</g>
</svg>
